<?xml version="1.0" standalone="no"?>
<!DOCTYPE svg PUBLIC "-//W3C//DTD SVG 20010904//EN"
 "http://www.w3.org/TR/2001/REC-SVG-20010904/DTD/svg10.dtd">
<svg version="1.0" xmlns="http://www.w3.org/2000/svg"
 width="48.000000pt" height="48.000000pt" viewBox="0 0 48.000000 48.000000"
 preserveAspectRatio="xMidYMid meet">

<g transform="translate(0.000000,48.000000) scale(0.100000,-0.100000)"
fill="#000000" stroke="none">
<path d="M95 387 l-35 -35 0 -103 0 -104 20 25 c15 19 20 41 20 93 0 59 3 71
25 92 22 23 32 25 115 25 83 0 93 -2 115 -25 23 -22 25 -32 25 -119 0 -52 -4
-98 -10 -101 -5 -3 -10 -21 -10 -38 l1 -32 29 33 c30 32 30 34 30 145 l0 113
-31 30 c-29 28 -34 29 -145 32 l-114 4 -35 -35z"/>
<path d="M140 340 c-15 -15 -20 -33 -20 -75 l0 -55 25 12 c14 6 25 19 25 30 0
28 36 58 70 58 40 0 70 -31 70 -72 0 -18 8 -46 19 -61 l18 -28 7 23 c3 13 6
51 6 86 0 89 -15 102 -120 102 -67 0 -83 -3 -100 -20z m180 -20 c0 -5 -4 -10
-10 -10 -5 0 -10 5 -10 10 0 6 5 10 10 10 6 0 10 -4 10 -10z"/>
<path d="M212 278 c-21 -21 -13 -34 28 -44 45 -13 58 0 34 35 -17 23 -44 27
-62 9z"/>
</g>
</svg>
